G04 #@! TF.GenerationSoftware,KiCad,Pcbnew,8.0.5*
G04 #@! TF.CreationDate,2025-06-30T10:57:32+07:00*
G04 #@! TF.ProjectId,trackingv2,74726163-6b69-46e6-9776-322e6b696361,rev?*
G04 #@! TF.SameCoordinates,Original*
G04 #@! TF.FileFunction,Legend,Bot*
G04 #@! TF.FilePolarity,Positive*
%FSLAX46Y46*%
G04 Gerber Fmt 4.6, Leading zero omitted, Abs format (unit mm)*
G04 Created by KiCad (PCBNEW 8.0.5) date 2025-06-30 10:57:32*
%MOMM*%
%LPD*%
G01*
G04 APERTURE LIST*
G04 Aperture macros list*
%AMRoundRect*
0 Rectangle with rounded corners*
0 $1 Rounding radius*
0 $2 $3 $4 $5 $6 $7 $8 $9 X,Y pos of 4 corners*
0 Add a 4 corners polygon primitive as box body*
4,1,4,$2,$3,$4,$5,$6,$7,$8,$9,$2,$3,0*
0 Add four circle primitives for the rounded corners*
1,1,$1+$1,$2,$3*
1,1,$1+$1,$4,$5*
1,1,$1+$1,$6,$7*
1,1,$1+$1,$8,$9*
0 Add four rect primitives between the rounded corners*
20,1,$1+$1,$2,$3,$4,$5,0*
20,1,$1+$1,$4,$5,$6,$7,0*
20,1,$1+$1,$6,$7,$8,$9,0*
20,1,$1+$1,$8,$9,$2,$3,0*%
G04 Aperture macros list end*
%ADD10C,0.100000*%
%ADD11C,0.125000*%
%ADD12C,0.150000*%
%ADD13C,0.120000*%
%ADD14R,1.700000X1.700000*%
%ADD15O,1.700000X1.700000*%
%ADD16R,1.524000X1.524000*%
%ADD17RoundRect,0.250001X-0.924999X0.499999X-0.924999X-0.499999X0.924999X-0.499999X0.924999X0.499999X0*%
%ADD18RoundRect,0.250000X-0.337500X-0.475000X0.337500X-0.475000X0.337500X0.475000X-0.337500X0.475000X0*%
%ADD19RoundRect,0.250000X-0.450000X0.350000X-0.450000X-0.350000X0.450000X-0.350000X0.450000X0.350000X0*%
%ADD20RoundRect,0.375000X0.375000X-0.625000X0.375000X0.625000X-0.375000X0.625000X-0.375000X-0.625000X0*%
%ADD21RoundRect,0.500000X1.400000X-0.500000X1.400000X0.500000X-1.400000X0.500000X-1.400000X-0.500000X0*%
G04 APERTURE END LIST*
D10*
X182374687Y-63872419D02*
X182708020Y-63396228D01*
X182946115Y-63872419D02*
X182946115Y-62872419D01*
X182946115Y-62872419D02*
X182565163Y-62872419D01*
X182565163Y-62872419D02*
X182469925Y-62920038D01*
X182469925Y-62920038D02*
X182422306Y-62967657D01*
X182422306Y-62967657D02*
X182374687Y-63062895D01*
X182374687Y-63062895D02*
X182374687Y-63205752D01*
X182374687Y-63205752D02*
X182422306Y-63300990D01*
X182422306Y-63300990D02*
X182469925Y-63348609D01*
X182469925Y-63348609D02*
X182565163Y-63396228D01*
X182565163Y-63396228D02*
X182946115Y-63396228D01*
X181993734Y-63824800D02*
X181850877Y-63872419D01*
X181850877Y-63872419D02*
X181612782Y-63872419D01*
X181612782Y-63872419D02*
X181517544Y-63824800D01*
X181517544Y-63824800D02*
X181469925Y-63777180D01*
X181469925Y-63777180D02*
X181422306Y-63681942D01*
X181422306Y-63681942D02*
X181422306Y-63586704D01*
X181422306Y-63586704D02*
X181469925Y-63491466D01*
X181469925Y-63491466D02*
X181517544Y-63443847D01*
X181517544Y-63443847D02*
X181612782Y-63396228D01*
X181612782Y-63396228D02*
X181803258Y-63348609D01*
X181803258Y-63348609D02*
X181898496Y-63300990D01*
X181898496Y-63300990D02*
X181946115Y-63253371D01*
X181946115Y-63253371D02*
X181993734Y-63158133D01*
X181993734Y-63158133D02*
X181993734Y-63062895D01*
X181993734Y-63062895D02*
X181946115Y-62967657D01*
X181946115Y-62967657D02*
X181898496Y-62920038D01*
X181898496Y-62920038D02*
X181803258Y-62872419D01*
X181803258Y-62872419D02*
X181565163Y-62872419D01*
X181565163Y-62872419D02*
X181422306Y-62920038D01*
X181136591Y-62872419D02*
X180565163Y-62872419D01*
X180850877Y-63872419D02*
X180850877Y-62872419D01*
X175196115Y-88372419D02*
X175196115Y-87372419D01*
X174719925Y-88372419D02*
X174719925Y-87372419D01*
X174719925Y-87372419D02*
X174148497Y-88372419D01*
X174148497Y-88372419D02*
X174148497Y-87372419D01*
X182672306Y-65420038D02*
X182767544Y-65372419D01*
X182767544Y-65372419D02*
X182910401Y-65372419D01*
X182910401Y-65372419D02*
X183053258Y-65420038D01*
X183053258Y-65420038D02*
X183148496Y-65515276D01*
X183148496Y-65515276D02*
X183196115Y-65610514D01*
X183196115Y-65610514D02*
X183243734Y-65800990D01*
X183243734Y-65800990D02*
X183243734Y-65943847D01*
X183243734Y-65943847D02*
X183196115Y-66134323D01*
X183196115Y-66134323D02*
X183148496Y-66229561D01*
X183148496Y-66229561D02*
X183053258Y-66324800D01*
X183053258Y-66324800D02*
X182910401Y-66372419D01*
X182910401Y-66372419D02*
X182815163Y-66372419D01*
X182815163Y-66372419D02*
X182672306Y-66324800D01*
X182672306Y-66324800D02*
X182624687Y-66277180D01*
X182624687Y-66277180D02*
X182624687Y-65943847D01*
X182624687Y-65943847D02*
X182815163Y-65943847D01*
X182196115Y-66372419D02*
X182196115Y-65372419D01*
X182196115Y-65372419D02*
X181815163Y-65372419D01*
X181815163Y-65372419D02*
X181719925Y-65420038D01*
X181719925Y-65420038D02*
X181672306Y-65467657D01*
X181672306Y-65467657D02*
X181624687Y-65562895D01*
X181624687Y-65562895D02*
X181624687Y-65705752D01*
X181624687Y-65705752D02*
X181672306Y-65800990D01*
X181672306Y-65800990D02*
X181719925Y-65848609D01*
X181719925Y-65848609D02*
X181815163Y-65896228D01*
X181815163Y-65896228D02*
X182196115Y-65896228D01*
X181196115Y-66372419D02*
X181196115Y-65372419D01*
X180529449Y-65372419D02*
X180338973Y-65372419D01*
X180338973Y-65372419D02*
X180243735Y-65420038D01*
X180243735Y-65420038D02*
X180148497Y-65515276D01*
X180148497Y-65515276D02*
X180100878Y-65705752D01*
X180100878Y-65705752D02*
X180100878Y-66039085D01*
X180100878Y-66039085D02*
X180148497Y-66229561D01*
X180148497Y-66229561D02*
X180243735Y-66324800D01*
X180243735Y-66324800D02*
X180338973Y-66372419D01*
X180338973Y-66372419D02*
X180529449Y-66372419D01*
X180529449Y-66372419D02*
X180624687Y-66324800D01*
X180624687Y-66324800D02*
X180719925Y-66229561D01*
X180719925Y-66229561D02*
X180767544Y-66039085D01*
X180767544Y-66039085D02*
X180767544Y-65705752D01*
X180767544Y-65705752D02*
X180719925Y-65515276D01*
X180719925Y-65515276D02*
X180624687Y-65420038D01*
X180624687Y-65420038D02*
X180529449Y-65372419D01*
X179481830Y-65372419D02*
X179386592Y-65372419D01*
X179386592Y-65372419D02*
X179291354Y-65420038D01*
X179291354Y-65420038D02*
X179243735Y-65467657D01*
X179243735Y-65467657D02*
X179196116Y-65562895D01*
X179196116Y-65562895D02*
X179148497Y-65753371D01*
X179148497Y-65753371D02*
X179148497Y-65991466D01*
X179148497Y-65991466D02*
X179196116Y-66181942D01*
X179196116Y-66181942D02*
X179243735Y-66277180D01*
X179243735Y-66277180D02*
X179291354Y-66324800D01*
X179291354Y-66324800D02*
X179386592Y-66372419D01*
X179386592Y-66372419D02*
X179481830Y-66372419D01*
X179481830Y-66372419D02*
X179577068Y-66324800D01*
X179577068Y-66324800D02*
X179624687Y-66277180D01*
X179624687Y-66277180D02*
X179672306Y-66181942D01*
X179672306Y-66181942D02*
X179719925Y-65991466D01*
X179719925Y-65991466D02*
X179719925Y-65753371D01*
X179719925Y-65753371D02*
X179672306Y-65562895D01*
X179672306Y-65562895D02*
X179624687Y-65467657D01*
X179624687Y-65467657D02*
X179577068Y-65420038D01*
X179577068Y-65420038D02*
X179481830Y-65372419D01*
X182672306Y-68170038D02*
X182767544Y-68122419D01*
X182767544Y-68122419D02*
X182910401Y-68122419D01*
X182910401Y-68122419D02*
X183053258Y-68170038D01*
X183053258Y-68170038D02*
X183148496Y-68265276D01*
X183148496Y-68265276D02*
X183196115Y-68360514D01*
X183196115Y-68360514D02*
X183243734Y-68550990D01*
X183243734Y-68550990D02*
X183243734Y-68693847D01*
X183243734Y-68693847D02*
X183196115Y-68884323D01*
X183196115Y-68884323D02*
X183148496Y-68979561D01*
X183148496Y-68979561D02*
X183053258Y-69074800D01*
X183053258Y-69074800D02*
X182910401Y-69122419D01*
X182910401Y-69122419D02*
X182815163Y-69122419D01*
X182815163Y-69122419D02*
X182672306Y-69074800D01*
X182672306Y-69074800D02*
X182624687Y-69027180D01*
X182624687Y-69027180D02*
X182624687Y-68693847D01*
X182624687Y-68693847D02*
X182815163Y-68693847D01*
X182196115Y-69122419D02*
X182196115Y-68122419D01*
X182196115Y-68122419D02*
X181815163Y-68122419D01*
X181815163Y-68122419D02*
X181719925Y-68170038D01*
X181719925Y-68170038D02*
X181672306Y-68217657D01*
X181672306Y-68217657D02*
X181624687Y-68312895D01*
X181624687Y-68312895D02*
X181624687Y-68455752D01*
X181624687Y-68455752D02*
X181672306Y-68550990D01*
X181672306Y-68550990D02*
X181719925Y-68598609D01*
X181719925Y-68598609D02*
X181815163Y-68646228D01*
X181815163Y-68646228D02*
X182196115Y-68646228D01*
X181196115Y-69122419D02*
X181196115Y-68122419D01*
X180529449Y-68122419D02*
X180338973Y-68122419D01*
X180338973Y-68122419D02*
X180243735Y-68170038D01*
X180243735Y-68170038D02*
X180148497Y-68265276D01*
X180148497Y-68265276D02*
X180100878Y-68455752D01*
X180100878Y-68455752D02*
X180100878Y-68789085D01*
X180100878Y-68789085D02*
X180148497Y-68979561D01*
X180148497Y-68979561D02*
X180243735Y-69074800D01*
X180243735Y-69074800D02*
X180338973Y-69122419D01*
X180338973Y-69122419D02*
X180529449Y-69122419D01*
X180529449Y-69122419D02*
X180624687Y-69074800D01*
X180624687Y-69074800D02*
X180719925Y-68979561D01*
X180719925Y-68979561D02*
X180767544Y-68789085D01*
X180767544Y-68789085D02*
X180767544Y-68455752D01*
X180767544Y-68455752D02*
X180719925Y-68265276D01*
X180719925Y-68265276D02*
X180624687Y-68170038D01*
X180624687Y-68170038D02*
X180529449Y-68122419D01*
X179719925Y-68217657D02*
X179672306Y-68170038D01*
X179672306Y-68170038D02*
X179577068Y-68122419D01*
X179577068Y-68122419D02*
X179338973Y-68122419D01*
X179338973Y-68122419D02*
X179243735Y-68170038D01*
X179243735Y-68170038D02*
X179196116Y-68217657D01*
X179196116Y-68217657D02*
X179148497Y-68312895D01*
X179148497Y-68312895D02*
X179148497Y-68408133D01*
X179148497Y-68408133D02*
X179196116Y-68550990D01*
X179196116Y-68550990D02*
X179767544Y-69122419D01*
X179767544Y-69122419D02*
X179148497Y-69122419D01*
X182374687Y-58622419D02*
X182708020Y-58146228D01*
X182946115Y-58622419D02*
X182946115Y-57622419D01*
X182946115Y-57622419D02*
X182565163Y-57622419D01*
X182565163Y-57622419D02*
X182469925Y-57670038D01*
X182469925Y-57670038D02*
X182422306Y-57717657D01*
X182422306Y-57717657D02*
X182374687Y-57812895D01*
X182374687Y-57812895D02*
X182374687Y-57955752D01*
X182374687Y-57955752D02*
X182422306Y-58050990D01*
X182422306Y-58050990D02*
X182469925Y-58098609D01*
X182469925Y-58098609D02*
X182565163Y-58146228D01*
X182565163Y-58146228D02*
X182946115Y-58146228D01*
X182041353Y-57622419D02*
X181374687Y-58622419D01*
X181374687Y-57622419D02*
X182041353Y-58622419D01*
X180993734Y-58622419D02*
X180993734Y-57622419D01*
X180993734Y-57622419D02*
X180755639Y-57622419D01*
X180755639Y-57622419D02*
X180612782Y-57670038D01*
X180612782Y-57670038D02*
X180517544Y-57765276D01*
X180517544Y-57765276D02*
X180469925Y-57860514D01*
X180469925Y-57860514D02*
X180422306Y-58050990D01*
X180422306Y-58050990D02*
X180422306Y-58193847D01*
X180422306Y-58193847D02*
X180469925Y-58384323D01*
X180469925Y-58384323D02*
X180517544Y-58479561D01*
X180517544Y-58479561D02*
X180612782Y-58574800D01*
X180612782Y-58574800D02*
X180755639Y-58622419D01*
X180755639Y-58622419D02*
X180993734Y-58622419D01*
X175338972Y-89872419D02*
X175005639Y-90872419D01*
X175005639Y-90872419D02*
X174672306Y-89872419D01*
X173767544Y-90777180D02*
X173815163Y-90824800D01*
X173815163Y-90824800D02*
X173958020Y-90872419D01*
X173958020Y-90872419D02*
X174053258Y-90872419D01*
X174053258Y-90872419D02*
X174196115Y-90824800D01*
X174196115Y-90824800D02*
X174291353Y-90729561D01*
X174291353Y-90729561D02*
X174338972Y-90634323D01*
X174338972Y-90634323D02*
X174386591Y-90443847D01*
X174386591Y-90443847D02*
X174386591Y-90300990D01*
X174386591Y-90300990D02*
X174338972Y-90110514D01*
X174338972Y-90110514D02*
X174291353Y-90015276D01*
X174291353Y-90015276D02*
X174196115Y-89920038D01*
X174196115Y-89920038D02*
X174053258Y-89872419D01*
X174053258Y-89872419D02*
X173958020Y-89872419D01*
X173958020Y-89872419D02*
X173815163Y-89920038D01*
X173815163Y-89920038D02*
X173767544Y-89967657D01*
X172767544Y-90777180D02*
X172815163Y-90824800D01*
X172815163Y-90824800D02*
X172958020Y-90872419D01*
X172958020Y-90872419D02*
X173053258Y-90872419D01*
X173053258Y-90872419D02*
X173196115Y-90824800D01*
X173196115Y-90824800D02*
X173291353Y-90729561D01*
X173291353Y-90729561D02*
X173338972Y-90634323D01*
X173338972Y-90634323D02*
X173386591Y-90443847D01*
X173386591Y-90443847D02*
X173386591Y-90300990D01*
X173386591Y-90300990D02*
X173338972Y-90110514D01*
X173338972Y-90110514D02*
X173291353Y-90015276D01*
X173291353Y-90015276D02*
X173196115Y-89920038D01*
X173196115Y-89920038D02*
X173053258Y-89872419D01*
X173053258Y-89872419D02*
X172958020Y-89872419D01*
X172958020Y-89872419D02*
X172815163Y-89920038D01*
X172815163Y-89920038D02*
X172767544Y-89967657D01*
X174672306Y-92420038D02*
X174767544Y-92372419D01*
X174767544Y-92372419D02*
X174910401Y-92372419D01*
X174910401Y-92372419D02*
X175053258Y-92420038D01*
X175053258Y-92420038D02*
X175148496Y-92515276D01*
X175148496Y-92515276D02*
X175196115Y-92610514D01*
X175196115Y-92610514D02*
X175243734Y-92800990D01*
X175243734Y-92800990D02*
X175243734Y-92943847D01*
X175243734Y-92943847D02*
X175196115Y-93134323D01*
X175196115Y-93134323D02*
X175148496Y-93229561D01*
X175148496Y-93229561D02*
X175053258Y-93324800D01*
X175053258Y-93324800D02*
X174910401Y-93372419D01*
X174910401Y-93372419D02*
X174815163Y-93372419D01*
X174815163Y-93372419D02*
X174672306Y-93324800D01*
X174672306Y-93324800D02*
X174624687Y-93277180D01*
X174624687Y-93277180D02*
X174624687Y-92943847D01*
X174624687Y-92943847D02*
X174815163Y-92943847D01*
X174196115Y-93372419D02*
X174196115Y-92372419D01*
X174196115Y-92372419D02*
X173624687Y-93372419D01*
X173624687Y-93372419D02*
X173624687Y-92372419D01*
X173148496Y-93372419D02*
X173148496Y-92372419D01*
X173148496Y-92372419D02*
X172910401Y-92372419D01*
X172910401Y-92372419D02*
X172767544Y-92420038D01*
X172767544Y-92420038D02*
X172672306Y-92515276D01*
X172672306Y-92515276D02*
X172624687Y-92610514D01*
X172624687Y-92610514D02*
X172577068Y-92800990D01*
X172577068Y-92800990D02*
X172577068Y-92943847D01*
X172577068Y-92943847D02*
X172624687Y-93134323D01*
X172624687Y-93134323D02*
X172672306Y-93229561D01*
X172672306Y-93229561D02*
X172767544Y-93324800D01*
X172767544Y-93324800D02*
X172910401Y-93372419D01*
X172910401Y-93372419D02*
X173148496Y-93372419D01*
X183088972Y-55122419D02*
X182517544Y-55122419D01*
X182803258Y-56122419D02*
X182803258Y-55122419D01*
X182279448Y-55122419D02*
X181612782Y-56122419D01*
X181612782Y-55122419D02*
X182279448Y-56122419D01*
X181231829Y-56122419D02*
X181231829Y-55122419D01*
X181231829Y-55122419D02*
X180993734Y-55122419D01*
X180993734Y-55122419D02*
X180850877Y-55170038D01*
X180850877Y-55170038D02*
X180755639Y-55265276D01*
X180755639Y-55265276D02*
X180708020Y-55360514D01*
X180708020Y-55360514D02*
X180660401Y-55550990D01*
X180660401Y-55550990D02*
X180660401Y-55693847D01*
X180660401Y-55693847D02*
X180708020Y-55884323D01*
X180708020Y-55884323D02*
X180755639Y-55979561D01*
X180755639Y-55979561D02*
X180850877Y-56074800D01*
X180850877Y-56074800D02*
X180993734Y-56122419D01*
X180993734Y-56122419D02*
X181231829Y-56122419D01*
D11*
X161166666Y-68360880D02*
X161214285Y-68408500D01*
X161214285Y-68408500D02*
X161357142Y-68456119D01*
X161357142Y-68456119D02*
X161452380Y-68456119D01*
X161452380Y-68456119D02*
X161595237Y-68408500D01*
X161595237Y-68408500D02*
X161690475Y-68313261D01*
X161690475Y-68313261D02*
X161738094Y-68218023D01*
X161738094Y-68218023D02*
X161785713Y-68027547D01*
X161785713Y-68027547D02*
X161785713Y-67884690D01*
X161785713Y-67884690D02*
X161738094Y-67694214D01*
X161738094Y-67694214D02*
X161690475Y-67598976D01*
X161690475Y-67598976D02*
X161595237Y-67503738D01*
X161595237Y-67503738D02*
X161452380Y-67456119D01*
X161452380Y-67456119D02*
X161357142Y-67456119D01*
X161357142Y-67456119D02*
X161214285Y-67503738D01*
X161214285Y-67503738D02*
X161166666Y-67551357D01*
X160833332Y-67456119D02*
X160214285Y-67456119D01*
X160214285Y-67456119D02*
X160547618Y-67837071D01*
X160547618Y-67837071D02*
X160404761Y-67837071D01*
X160404761Y-67837071D02*
X160309523Y-67884690D01*
X160309523Y-67884690D02*
X160261904Y-67932309D01*
X160261904Y-67932309D02*
X160214285Y-68027547D01*
X160214285Y-68027547D02*
X160214285Y-68265642D01*
X160214285Y-68265642D02*
X160261904Y-68360880D01*
X160261904Y-68360880D02*
X160309523Y-68408500D01*
X160309523Y-68408500D02*
X160404761Y-68456119D01*
X160404761Y-68456119D02*
X160690475Y-68456119D01*
X160690475Y-68456119D02*
X160785713Y-68408500D01*
X160785713Y-68408500D02*
X160833332Y-68360880D01*
D12*
X166916666Y-67109580D02*
X166964285Y-67157200D01*
X166964285Y-67157200D02*
X167107142Y-67204819D01*
X167107142Y-67204819D02*
X167202380Y-67204819D01*
X167202380Y-67204819D02*
X167345237Y-67157200D01*
X167345237Y-67157200D02*
X167440475Y-67061961D01*
X167440475Y-67061961D02*
X167488094Y-66966723D01*
X167488094Y-66966723D02*
X167535713Y-66776247D01*
X167535713Y-66776247D02*
X167535713Y-66633390D01*
X167535713Y-66633390D02*
X167488094Y-66442914D01*
X167488094Y-66442914D02*
X167440475Y-66347676D01*
X167440475Y-66347676D02*
X167345237Y-66252438D01*
X167345237Y-66252438D02*
X167202380Y-66204819D01*
X167202380Y-66204819D02*
X167107142Y-66204819D01*
X167107142Y-66204819D02*
X166964285Y-66252438D01*
X166964285Y-66252438D02*
X166916666Y-66300057D01*
X165964285Y-67204819D02*
X166535713Y-67204819D01*
X166249999Y-67204819D02*
X166249999Y-66204819D01*
X166249999Y-66204819D02*
X166345237Y-66347676D01*
X166345237Y-66347676D02*
X166440475Y-66442914D01*
X166440475Y-66442914D02*
X166535713Y-66490533D01*
X175916666Y-62254819D02*
X176249999Y-61778628D01*
X176488094Y-62254819D02*
X176488094Y-61254819D01*
X176488094Y-61254819D02*
X176107142Y-61254819D01*
X176107142Y-61254819D02*
X176011904Y-61302438D01*
X176011904Y-61302438D02*
X175964285Y-61350057D01*
X175964285Y-61350057D02*
X175916666Y-61445295D01*
X175916666Y-61445295D02*
X175916666Y-61588152D01*
X175916666Y-61588152D02*
X175964285Y-61683390D01*
X175964285Y-61683390D02*
X176011904Y-61731009D01*
X176011904Y-61731009D02*
X176107142Y-61778628D01*
X176107142Y-61778628D02*
X176488094Y-61778628D01*
X175535713Y-61350057D02*
X175488094Y-61302438D01*
X175488094Y-61302438D02*
X175392856Y-61254819D01*
X175392856Y-61254819D02*
X175154761Y-61254819D01*
X175154761Y-61254819D02*
X175059523Y-61302438D01*
X175059523Y-61302438D02*
X175011904Y-61350057D01*
X175011904Y-61350057D02*
X174964285Y-61445295D01*
X174964285Y-61445295D02*
X174964285Y-61540533D01*
X174964285Y-61540533D02*
X175011904Y-61683390D01*
X175011904Y-61683390D02*
X175583332Y-62254819D01*
X175583332Y-62254819D02*
X174964285Y-62254819D01*
X169860951Y-84659819D02*
X169527618Y-85659819D01*
X169527618Y-85659819D02*
X169194285Y-84659819D01*
X168860951Y-85659819D02*
X168860951Y-84659819D01*
X168051428Y-85136009D02*
X167908571Y-85183628D01*
X167908571Y-85183628D02*
X167860952Y-85231247D01*
X167860952Y-85231247D02*
X167813333Y-85326485D01*
X167813333Y-85326485D02*
X167813333Y-85469342D01*
X167813333Y-85469342D02*
X167860952Y-85564580D01*
X167860952Y-85564580D02*
X167908571Y-85612200D01*
X167908571Y-85612200D02*
X168003809Y-85659819D01*
X168003809Y-85659819D02*
X168384761Y-85659819D01*
X168384761Y-85659819D02*
X168384761Y-84659819D01*
X168384761Y-84659819D02*
X168051428Y-84659819D01*
X168051428Y-84659819D02*
X167956190Y-84707438D01*
X167956190Y-84707438D02*
X167908571Y-84755057D01*
X167908571Y-84755057D02*
X167860952Y-84850295D01*
X167860952Y-84850295D02*
X167860952Y-84945533D01*
X167860952Y-84945533D02*
X167908571Y-85040771D01*
X167908571Y-85040771D02*
X167956190Y-85088390D01*
X167956190Y-85088390D02*
X168051428Y-85136009D01*
X168051428Y-85136009D02*
X168384761Y-85136009D01*
X166813333Y-85659819D02*
X167146666Y-85183628D01*
X167384761Y-85659819D02*
X167384761Y-84659819D01*
X167384761Y-84659819D02*
X167003809Y-84659819D01*
X167003809Y-84659819D02*
X166908571Y-84707438D01*
X166908571Y-84707438D02*
X166860952Y-84755057D01*
X166860952Y-84755057D02*
X166813333Y-84850295D01*
X166813333Y-84850295D02*
X166813333Y-84993152D01*
X166813333Y-84993152D02*
X166860952Y-85088390D01*
X166860952Y-85088390D02*
X166908571Y-85136009D01*
X166908571Y-85136009D02*
X167003809Y-85183628D01*
X167003809Y-85183628D02*
X167384761Y-85183628D01*
X166432380Y-85374104D02*
X165956190Y-85374104D01*
X166527618Y-85659819D02*
X166194285Y-84659819D01*
X166194285Y-84659819D02*
X165860952Y-85659819D01*
X165670475Y-84659819D02*
X165099047Y-84659819D01*
X165384761Y-85659819D02*
X165384761Y-84659819D01*
X164575237Y-84659819D02*
X164384761Y-84659819D01*
X164384761Y-84659819D02*
X164289523Y-84707438D01*
X164289523Y-84707438D02*
X164194285Y-84802676D01*
X164194285Y-84802676D02*
X164146666Y-84993152D01*
X164146666Y-84993152D02*
X164146666Y-85326485D01*
X164146666Y-85326485D02*
X164194285Y-85516961D01*
X164194285Y-85516961D02*
X164289523Y-85612200D01*
X164289523Y-85612200D02*
X164384761Y-85659819D01*
X164384761Y-85659819D02*
X164575237Y-85659819D01*
X164575237Y-85659819D02*
X164670475Y-85612200D01*
X164670475Y-85612200D02*
X164765713Y-85516961D01*
X164765713Y-85516961D02*
X164813332Y-85326485D01*
X164813332Y-85326485D02*
X164813332Y-84993152D01*
X164813332Y-84993152D02*
X164765713Y-84802676D01*
X164765713Y-84802676D02*
X164670475Y-84707438D01*
X164670475Y-84707438D02*
X164575237Y-84659819D01*
X163146666Y-85659819D02*
X163479999Y-85183628D01*
X163718094Y-85659819D02*
X163718094Y-84659819D01*
X163718094Y-84659819D02*
X163337142Y-84659819D01*
X163337142Y-84659819D02*
X163241904Y-84707438D01*
X163241904Y-84707438D02*
X163194285Y-84755057D01*
X163194285Y-84755057D02*
X163146666Y-84850295D01*
X163146666Y-84850295D02*
X163146666Y-84993152D01*
X163146666Y-84993152D02*
X163194285Y-85088390D01*
X163194285Y-85088390D02*
X163241904Y-85136009D01*
X163241904Y-85136009D02*
X163337142Y-85183628D01*
X163337142Y-85183628D02*
X163718094Y-85183628D01*
X162194285Y-85659819D02*
X162765713Y-85659819D01*
X162479999Y-85659819D02*
X162479999Y-84659819D01*
X162479999Y-84659819D02*
X162575237Y-84802676D01*
X162575237Y-84802676D02*
X162670475Y-84897914D01*
X162670475Y-84897914D02*
X162765713Y-84945533D01*
D11*
X179860880Y-54083333D02*
X179908500Y-54035714D01*
X179908500Y-54035714D02*
X179956119Y-53892857D01*
X179956119Y-53892857D02*
X179956119Y-53797619D01*
X179956119Y-53797619D02*
X179908500Y-53654762D01*
X179908500Y-53654762D02*
X179813261Y-53559524D01*
X179813261Y-53559524D02*
X179718023Y-53511905D01*
X179718023Y-53511905D02*
X179527547Y-53464286D01*
X179527547Y-53464286D02*
X179384690Y-53464286D01*
X179384690Y-53464286D02*
X179194214Y-53511905D01*
X179194214Y-53511905D02*
X179098976Y-53559524D01*
X179098976Y-53559524D02*
X179003738Y-53654762D01*
X179003738Y-53654762D02*
X178956119Y-53797619D01*
X178956119Y-53797619D02*
X178956119Y-53892857D01*
X178956119Y-53892857D02*
X179003738Y-54035714D01*
X179003738Y-54035714D02*
X179051357Y-54083333D01*
X179289452Y-54940476D02*
X179956119Y-54940476D01*
X178908500Y-54702381D02*
X179622785Y-54464286D01*
X179622785Y-54464286D02*
X179622785Y-55083333D01*
D12*
X175916666Y-66204819D02*
X176249999Y-65728628D01*
X176488094Y-66204819D02*
X176488094Y-65204819D01*
X176488094Y-65204819D02*
X176107142Y-65204819D01*
X176107142Y-65204819D02*
X176011904Y-65252438D01*
X176011904Y-65252438D02*
X175964285Y-65300057D01*
X175964285Y-65300057D02*
X175916666Y-65395295D01*
X175916666Y-65395295D02*
X175916666Y-65538152D01*
X175916666Y-65538152D02*
X175964285Y-65633390D01*
X175964285Y-65633390D02*
X176011904Y-65681009D01*
X176011904Y-65681009D02*
X176107142Y-65728628D01*
X176107142Y-65728628D02*
X176488094Y-65728628D01*
X175583332Y-65204819D02*
X174964285Y-65204819D01*
X174964285Y-65204819D02*
X175297618Y-65585771D01*
X175297618Y-65585771D02*
X175154761Y-65585771D01*
X175154761Y-65585771D02*
X175059523Y-65633390D01*
X175059523Y-65633390D02*
X175011904Y-65681009D01*
X175011904Y-65681009D02*
X174964285Y-65776247D01*
X174964285Y-65776247D02*
X174964285Y-66014342D01*
X174964285Y-66014342D02*
X175011904Y-66109580D01*
X175011904Y-66109580D02*
X175059523Y-66157200D01*
X175059523Y-66157200D02*
X175154761Y-66204819D01*
X175154761Y-66204819D02*
X175440475Y-66204819D01*
X175440475Y-66204819D02*
X175535713Y-66157200D01*
X175535713Y-66157200D02*
X175583332Y-66109580D01*
X165166666Y-53954819D02*
X165499999Y-53478628D01*
X165738094Y-53954819D02*
X165738094Y-52954819D01*
X165738094Y-52954819D02*
X165357142Y-52954819D01*
X165357142Y-52954819D02*
X165261904Y-53002438D01*
X165261904Y-53002438D02*
X165214285Y-53050057D01*
X165214285Y-53050057D02*
X165166666Y-53145295D01*
X165166666Y-53145295D02*
X165166666Y-53288152D01*
X165166666Y-53288152D02*
X165214285Y-53383390D01*
X165214285Y-53383390D02*
X165261904Y-53431009D01*
X165261904Y-53431009D02*
X165357142Y-53478628D01*
X165357142Y-53478628D02*
X165738094Y-53478628D01*
X164214285Y-53954819D02*
X164785713Y-53954819D01*
X164499999Y-53954819D02*
X164499999Y-52954819D01*
X164499999Y-52954819D02*
X164595237Y-53097676D01*
X164595237Y-53097676D02*
X164690475Y-53192914D01*
X164690475Y-53192914D02*
X164785713Y-53240533D01*
X166916666Y-64359580D02*
X166964285Y-64407200D01*
X166964285Y-64407200D02*
X167107142Y-64454819D01*
X167107142Y-64454819D02*
X167202380Y-64454819D01*
X167202380Y-64454819D02*
X167345237Y-64407200D01*
X167345237Y-64407200D02*
X167440475Y-64311961D01*
X167440475Y-64311961D02*
X167488094Y-64216723D01*
X167488094Y-64216723D02*
X167535713Y-64026247D01*
X167535713Y-64026247D02*
X167535713Y-63883390D01*
X167535713Y-63883390D02*
X167488094Y-63692914D01*
X167488094Y-63692914D02*
X167440475Y-63597676D01*
X167440475Y-63597676D02*
X167345237Y-63502438D01*
X167345237Y-63502438D02*
X167202380Y-63454819D01*
X167202380Y-63454819D02*
X167107142Y-63454819D01*
X167107142Y-63454819D02*
X166964285Y-63502438D01*
X166964285Y-63502438D02*
X166916666Y-63550057D01*
X166535713Y-63550057D02*
X166488094Y-63502438D01*
X166488094Y-63502438D02*
X166392856Y-63454819D01*
X166392856Y-63454819D02*
X166154761Y-63454819D01*
X166154761Y-63454819D02*
X166059523Y-63502438D01*
X166059523Y-63502438D02*
X166011904Y-63550057D01*
X166011904Y-63550057D02*
X165964285Y-63645295D01*
X165964285Y-63645295D02*
X165964285Y-63740533D01*
X165964285Y-63740533D02*
X166011904Y-63883390D01*
X166011904Y-63883390D02*
X166583332Y-64454819D01*
X166583332Y-64454819D02*
X165964285Y-64454819D01*
D13*
X159490000Y-61865000D02*
X159490000Y-66250000D01*
X162510000Y-61865000D02*
X159490000Y-61865000D01*
X162510000Y-66250000D02*
X162510000Y-61865000D01*
X169761252Y-66015000D02*
X169238748Y-66015000D01*
X169761252Y-67485000D02*
X169238748Y-67485000D01*
X177015000Y-61727064D02*
X177015000Y-61272936D01*
X178485000Y-61727064D02*
X178485000Y-61272936D01*
X160490000Y-86645000D02*
X161600000Y-86645000D01*
X160490000Y-87975000D02*
X160490000Y-86645000D01*
X162650000Y-90155000D02*
X163060000Y-90155000D01*
X162650000Y-90875000D02*
X163060000Y-90875000D01*
X162650000Y-92695000D02*
X163060000Y-92695000D01*
X162650000Y-93415000D02*
X163060000Y-93415000D01*
X162710000Y-87615000D02*
X163060000Y-87615000D01*
X162710000Y-88335000D02*
X163060000Y-88335000D01*
X163060000Y-86645000D02*
X171690000Y-86645000D01*
X163060000Y-86765000D02*
X171690000Y-86765000D01*
X163060000Y-86883095D02*
X171690000Y-86883095D01*
X163060000Y-87001190D02*
X171690000Y-87001190D01*
X163060000Y-87119285D02*
X171690000Y-87119285D01*
X163060000Y-87237380D02*
X171690000Y-87237380D01*
X163060000Y-87355475D02*
X171690000Y-87355475D01*
X163060000Y-87473570D02*
X171690000Y-87473570D01*
X163060000Y-87591665D02*
X171690000Y-87591665D01*
X163060000Y-87709760D02*
X171690000Y-87709760D01*
X163060000Y-87827855D02*
X171690000Y-87827855D01*
X163060000Y-87945950D02*
X171690000Y-87945950D01*
X163060000Y-88064045D02*
X171690000Y-88064045D01*
X163060000Y-88182140D02*
X171690000Y-88182140D01*
X163060000Y-88300235D02*
X171690000Y-88300235D01*
X163060000Y-88418330D02*
X171690000Y-88418330D01*
X163060000Y-88536425D02*
X171690000Y-88536425D01*
X163060000Y-88654520D02*
X171690000Y-88654520D01*
X163060000Y-88772615D02*
X171690000Y-88772615D01*
X163060000Y-88890710D02*
X171690000Y-88890710D01*
X163060000Y-89008805D02*
X171690000Y-89008805D01*
X163060000Y-89126900D02*
X171690000Y-89126900D01*
X163060000Y-89245000D02*
X171690000Y-89245000D01*
X163060000Y-91785000D02*
X171690000Y-91785000D01*
X163060000Y-94385000D02*
X163060000Y-86645000D01*
X163060000Y-94385000D02*
X171690000Y-94385000D01*
X171690000Y-94385000D02*
X171690000Y-86645000D01*
X175490000Y-52615000D02*
X175490000Y-57000000D01*
X178510000Y-52615000D02*
X175490000Y-52615000D01*
X178510000Y-57000000D02*
X178510000Y-52615000D01*
X177015000Y-65977064D02*
X177015000Y-65522936D01*
X178485000Y-65977064D02*
X178485000Y-65522936D01*
X164265000Y-56227064D02*
X164265000Y-55772936D01*
X165735000Y-56227064D02*
X165735000Y-55772936D01*
X169761252Y-63265000D02*
X169238748Y-63265000D01*
X169761252Y-64735000D02*
X169238748Y-64735000D01*
X167590000Y-54990000D02*
X167590000Y-58750000D01*
X168850000Y-54990000D02*
X167590000Y-54990000D01*
X173150000Y-54990000D02*
X174410000Y-54990000D01*
X174410000Y-54990000D02*
X174410000Y-58750000D01*
X174640000Y-60270000D02*
X174310000Y-60030000D01*
X174640000Y-59790000D01*
X174640000Y-60270000D01*
G36*
X174640000Y-60270000D02*
G01*
X174310000Y-60030000D01*
X174640000Y-59790000D01*
X174640000Y-60270000D01*
G37*
%LPC*%
D14*
X184500000Y-80800000D03*
D15*
X184500000Y-83340000D03*
X184500000Y-85880000D03*
X184500000Y-88420000D03*
X184500000Y-90960000D03*
X184500000Y-93500000D03*
D14*
X176550000Y-72775000D03*
D15*
X174010000Y-72775000D03*
X171470000Y-72775000D03*
X168930000Y-72775000D03*
D14*
X161000000Y-55725000D03*
D15*
X161000000Y-58265000D03*
D14*
X185000000Y-55460000D03*
D15*
X185000000Y-58000000D03*
D14*
X185000000Y-63420000D03*
D15*
X185000000Y-65960000D03*
X185000000Y-68500000D03*
D16*
X2139443637Y-2136483637D03*
X2139483637Y2134983659D03*
X-2143023659Y-2136483637D03*
X-2140483659Y2134983659D03*
X2141983637Y-2136483637D03*
X-2140483659Y-2136483637D03*
D17*
X161000000Y-62875000D03*
X161000000Y-66125000D03*
D18*
X168462500Y-66750000D03*
X170537500Y-66750000D03*
D19*
X177750000Y-60500000D03*
X177750000Y-62500000D03*
D14*
X161600000Y-87975000D03*
D15*
X161600000Y-90515000D03*
X161600000Y-93055000D03*
D17*
X177000000Y-53625000D03*
X177000000Y-56875000D03*
D19*
X177750000Y-64750000D03*
X177750000Y-66750000D03*
X165000000Y-55000000D03*
X165000000Y-57000000D03*
D18*
X168462500Y-64000000D03*
X170537500Y-64000000D03*
D20*
X173300000Y-60050000D03*
X171000000Y-60050000D03*
D21*
X171000000Y-53750000D03*
D20*
X168700000Y-60050000D03*
%LPD*%
M02*
