G04 #@! TF.GenerationSoftware,KiCad,Pcbnew,8.0.5*
G04 #@! TF.CreationDate,2025-06-30T10:57:32+07:00*
G04 #@! TF.ProjectId,trackingv2,74726163-6b69-46e6-9776-322e6b696361,rev?*
G04 #@! TF.SameCoordinates,Original*
G04 #@! TF.FileFunction,Soldermask,Top*
G04 #@! TF.FilePolarity,Negative*
%FSLAX46Y46*%
G04 Gerber Fmt 4.6, Leading zero omitted, Abs format (unit mm)*
G04 Created by KiCad (PCBNEW 8.0.5) date 2025-06-30 10:57:32*
%MOMM*%
%LPD*%
G01*
G04 APERTURE LIST*
%ADD10R,1.700000X1.700000*%
%ADD11O,1.700000X1.700000*%
%ADD12R,2.500000X1.000000*%
%ADD13R,1.000000X1.800000*%
%ADD14R,1.524000X1.524000*%
G04 APERTURE END LIST*
D10*
X184500000Y-80800000D03*
D11*
X184500000Y-83340000D03*
X184500000Y-85880000D03*
X184500000Y-88420000D03*
X184500000Y-90960000D03*
X184500000Y-93500000D03*
D12*
X180600000Y-53000000D03*
X180600000Y-55000000D03*
X180600000Y-57000000D03*
X180600000Y-59000000D03*
X180600000Y-61000000D03*
X180600000Y-63000000D03*
X180600000Y-65000000D03*
X180600000Y-67000000D03*
D13*
X178000000Y-68500000D03*
X176000000Y-68500000D03*
X174000000Y-68500000D03*
X172000000Y-68500000D03*
X170000000Y-68500000D03*
X168000000Y-68500000D03*
D12*
X165400000Y-67000000D03*
X165400000Y-65000000D03*
X165400000Y-63000000D03*
X165400000Y-61000000D03*
X165400000Y-59000000D03*
X165400000Y-57000000D03*
X165400000Y-55000000D03*
X165400000Y-53000000D03*
D10*
X176550000Y-72775000D03*
D11*
X174010000Y-72775000D03*
X171470000Y-72775000D03*
X168930000Y-72775000D03*
D10*
X161000000Y-55725000D03*
D11*
X161000000Y-58265000D03*
D10*
X185000000Y-55460000D03*
D11*
X185000000Y-58000000D03*
D10*
X185000000Y-63420000D03*
D11*
X185000000Y-65960000D03*
X185000000Y-68500000D03*
D14*
X2139443637Y-2136483637D03*
X2139483637Y2134983659D03*
X-2143023659Y-2136483637D03*
X-2140483659Y2134983659D03*
X2141983637Y-2136483637D03*
X-2140483659Y-2136483637D03*
D10*
X161600000Y-87975000D03*
D11*
X161600000Y-90515000D03*
X161600000Y-93055000D03*
M02*
