G04 #@! TF.GenerationSoftware,KiCad,Pcbnew,8.0.5*
G04 #@! TF.CreationDate,2025-06-30T10:57:32+07:00*
G04 #@! TF.ProjectId,trackingv2,74726163-6b69-46e6-9776-322e6b696361,rev?*
G04 #@! TF.SameCoordinates,Original*
G04 #@! TF.FileFunction,Legend,Top*
G04 #@! TF.FilePolarity,Positive*
%FSLAX46Y46*%
G04 Gerber Fmt 4.6, Leading zero omitted, Abs format (unit mm)*
G04 Created by KiCad (PCBNEW 8.0.5) date 2025-06-30 10:57:32*
%MOMM*%
%LPD*%
G01*
G04 APERTURE LIST*
%ADD10C,0.100000*%
%ADD11C,0.150000*%
%ADD12C,0.120000*%
%ADD13R,1.700000X1.700000*%
%ADD14O,1.700000X1.700000*%
%ADD15R,2.500000X1.000000*%
%ADD16R,1.000000X1.800000*%
%ADD17R,1.524000X1.524000*%
G04 APERTURE END LIST*
D10*
X158303884Y-58491466D02*
X159065789Y-58491466D01*
X158684836Y-58872419D02*
X158684836Y-58110514D01*
X158303884Y-55491466D02*
X159065789Y-55491466D01*
D11*
X181931009Y-89738095D02*
X181978628Y-89595238D01*
X181978628Y-89595238D02*
X182026247Y-89547619D01*
X182026247Y-89547619D02*
X182121485Y-89500000D01*
X182121485Y-89500000D02*
X182264342Y-89500000D01*
X182264342Y-89500000D02*
X182359580Y-89547619D01*
X182359580Y-89547619D02*
X182407200Y-89595238D01*
X182407200Y-89595238D02*
X182454819Y-89690476D01*
X182454819Y-89690476D02*
X182454819Y-90071428D01*
X182454819Y-90071428D02*
X181454819Y-90071428D01*
X181454819Y-90071428D02*
X181454819Y-89738095D01*
X181454819Y-89738095D02*
X181502438Y-89642857D01*
X181502438Y-89642857D02*
X181550057Y-89595238D01*
X181550057Y-89595238D02*
X181645295Y-89547619D01*
X181645295Y-89547619D02*
X181740533Y-89547619D01*
X181740533Y-89547619D02*
X181835771Y-89595238D01*
X181835771Y-89595238D02*
X181883390Y-89642857D01*
X181883390Y-89642857D02*
X181931009Y-89738095D01*
X181931009Y-89738095D02*
X181931009Y-90071428D01*
X181454819Y-89071428D02*
X182264342Y-89071428D01*
X182264342Y-89071428D02*
X182359580Y-89023809D01*
X182359580Y-89023809D02*
X182407200Y-88976190D01*
X182407200Y-88976190D02*
X182454819Y-88880952D01*
X182454819Y-88880952D02*
X182454819Y-88690476D01*
X182454819Y-88690476D02*
X182407200Y-88595238D01*
X182407200Y-88595238D02*
X182359580Y-88547619D01*
X182359580Y-88547619D02*
X182264342Y-88500000D01*
X182264342Y-88500000D02*
X181454819Y-88500000D01*
X181454819Y-88166666D02*
X181454819Y-87595238D01*
X182454819Y-87880952D02*
X181454819Y-87880952D01*
X181454819Y-87404761D02*
X181454819Y-86833333D01*
X182454819Y-87119047D02*
X181454819Y-87119047D01*
X181454819Y-86309523D02*
X181454819Y-86119047D01*
X181454819Y-86119047D02*
X181502438Y-86023809D01*
X181502438Y-86023809D02*
X181597676Y-85928571D01*
X181597676Y-85928571D02*
X181788152Y-85880952D01*
X181788152Y-85880952D02*
X182121485Y-85880952D01*
X182121485Y-85880952D02*
X182311961Y-85928571D01*
X182311961Y-85928571D02*
X182407200Y-86023809D01*
X182407200Y-86023809D02*
X182454819Y-86119047D01*
X182454819Y-86119047D02*
X182454819Y-86309523D01*
X182454819Y-86309523D02*
X182407200Y-86404761D01*
X182407200Y-86404761D02*
X182311961Y-86499999D01*
X182311961Y-86499999D02*
X182121485Y-86547618D01*
X182121485Y-86547618D02*
X181788152Y-86547618D01*
X181788152Y-86547618D02*
X181597676Y-86499999D01*
X181597676Y-86499999D02*
X181502438Y-86404761D01*
X181502438Y-86404761D02*
X181454819Y-86309523D01*
X182454819Y-85452380D02*
X181454819Y-85452380D01*
X181454819Y-85452380D02*
X182454819Y-84880952D01*
X182454819Y-84880952D02*
X181454819Y-84880952D01*
X182454819Y-83880952D02*
X182454819Y-84452380D01*
X182454819Y-84166666D02*
X181454819Y-84166666D01*
X181454819Y-84166666D02*
X181597676Y-84261904D01*
X181597676Y-84261904D02*
X181692914Y-84357142D01*
X181692914Y-84357142D02*
X181740533Y-84452380D01*
X167464285Y-75204819D02*
X167654761Y-75204819D01*
X167654761Y-75204819D02*
X167749999Y-75252438D01*
X167749999Y-75252438D02*
X167845237Y-75347676D01*
X167845237Y-75347676D02*
X167892856Y-75538152D01*
X167892856Y-75538152D02*
X167892856Y-75871485D01*
X167892856Y-75871485D02*
X167845237Y-76061961D01*
X167845237Y-76061961D02*
X167749999Y-76157200D01*
X167749999Y-76157200D02*
X167654761Y-76204819D01*
X167654761Y-76204819D02*
X167464285Y-76204819D01*
X167464285Y-76204819D02*
X167369047Y-76157200D01*
X167369047Y-76157200D02*
X167273809Y-76061961D01*
X167273809Y-76061961D02*
X167226190Y-75871485D01*
X167226190Y-75871485D02*
X167226190Y-75538152D01*
X167226190Y-75538152D02*
X167273809Y-75347676D01*
X167273809Y-75347676D02*
X167369047Y-75252438D01*
X167369047Y-75252438D02*
X167464285Y-75204819D01*
X168797618Y-76204819D02*
X168321428Y-76204819D01*
X168321428Y-76204819D02*
X168321428Y-75204819D01*
X169130952Y-75681009D02*
X169464285Y-75681009D01*
X169607142Y-76204819D02*
X169130952Y-76204819D01*
X169130952Y-76204819D02*
X169130952Y-75204819D01*
X169130952Y-75204819D02*
X169607142Y-75204819D01*
X170035714Y-76204819D02*
X170035714Y-75204819D01*
X170035714Y-75204819D02*
X170273809Y-75204819D01*
X170273809Y-75204819D02*
X170416666Y-75252438D01*
X170416666Y-75252438D02*
X170511904Y-75347676D01*
X170511904Y-75347676D02*
X170559523Y-75442914D01*
X170559523Y-75442914D02*
X170607142Y-75633390D01*
X170607142Y-75633390D02*
X170607142Y-75776247D01*
X170607142Y-75776247D02*
X170559523Y-75966723D01*
X170559523Y-75966723D02*
X170511904Y-76061961D01*
X170511904Y-76061961D02*
X170416666Y-76157200D01*
X170416666Y-76157200D02*
X170273809Y-76204819D01*
X170273809Y-76204819D02*
X170035714Y-76204819D01*
X170797619Y-76300057D02*
X171559523Y-76300057D01*
X171797619Y-76204819D02*
X171797619Y-75204819D01*
X171797619Y-75204819D02*
X172035714Y-75204819D01*
X172035714Y-75204819D02*
X172178571Y-75252438D01*
X172178571Y-75252438D02*
X172273809Y-75347676D01*
X172273809Y-75347676D02*
X172321428Y-75442914D01*
X172321428Y-75442914D02*
X172369047Y-75633390D01*
X172369047Y-75633390D02*
X172369047Y-75776247D01*
X172369047Y-75776247D02*
X172321428Y-75966723D01*
X172321428Y-75966723D02*
X172273809Y-76061961D01*
X172273809Y-76061961D02*
X172178571Y-76157200D01*
X172178571Y-76157200D02*
X172035714Y-76204819D01*
X172035714Y-76204819D02*
X171797619Y-76204819D01*
X172797619Y-76204819D02*
X172797619Y-75204819D01*
X173226190Y-76157200D02*
X173369047Y-76204819D01*
X173369047Y-76204819D02*
X173607142Y-76204819D01*
X173607142Y-76204819D02*
X173702380Y-76157200D01*
X173702380Y-76157200D02*
X173749999Y-76109580D01*
X173749999Y-76109580D02*
X173797618Y-76014342D01*
X173797618Y-76014342D02*
X173797618Y-75919104D01*
X173797618Y-75919104D02*
X173749999Y-75823866D01*
X173749999Y-75823866D02*
X173702380Y-75776247D01*
X173702380Y-75776247D02*
X173607142Y-75728628D01*
X173607142Y-75728628D02*
X173416666Y-75681009D01*
X173416666Y-75681009D02*
X173321428Y-75633390D01*
X173321428Y-75633390D02*
X173273809Y-75585771D01*
X173273809Y-75585771D02*
X173226190Y-75490533D01*
X173226190Y-75490533D02*
X173226190Y-75395295D01*
X173226190Y-75395295D02*
X173273809Y-75300057D01*
X173273809Y-75300057D02*
X173321428Y-75252438D01*
X173321428Y-75252438D02*
X173416666Y-75204819D01*
X173416666Y-75204819D02*
X173654761Y-75204819D01*
X173654761Y-75204819D02*
X173797618Y-75252438D01*
X174226190Y-76204819D02*
X174226190Y-75204819D01*
X174226190Y-75204819D02*
X174607142Y-75204819D01*
X174607142Y-75204819D02*
X174702380Y-75252438D01*
X174702380Y-75252438D02*
X174749999Y-75300057D01*
X174749999Y-75300057D02*
X174797618Y-75395295D01*
X174797618Y-75395295D02*
X174797618Y-75538152D01*
X174797618Y-75538152D02*
X174749999Y-75633390D01*
X174749999Y-75633390D02*
X174702380Y-75681009D01*
X174702380Y-75681009D02*
X174607142Y-75728628D01*
X174607142Y-75728628D02*
X174226190Y-75728628D01*
X175702380Y-76204819D02*
X175226190Y-76204819D01*
X175226190Y-76204819D02*
X175226190Y-75204819D01*
X175988095Y-75919104D02*
X176464285Y-75919104D01*
X175892857Y-76204819D02*
X176226190Y-75204819D01*
X176226190Y-75204819D02*
X176559523Y-76204819D01*
X177083333Y-75728628D02*
X177083333Y-76204819D01*
X176750000Y-75204819D02*
X177083333Y-75728628D01*
X177083333Y-75728628D02*
X177416666Y-75204819D01*
X178273809Y-76204819D02*
X177702381Y-76204819D01*
X177988095Y-76204819D02*
X177988095Y-75204819D01*
X177988095Y-75204819D02*
X177892857Y-75347676D01*
X177892857Y-75347676D02*
X177797619Y-75442914D01*
X177797619Y-75442914D02*
X177702381Y-75490533D01*
X183357142Y-53359580D02*
X183309523Y-53407200D01*
X183309523Y-53407200D02*
X183166666Y-53454819D01*
X183166666Y-53454819D02*
X183071428Y-53454819D01*
X183071428Y-53454819D02*
X182928571Y-53407200D01*
X182928571Y-53407200D02*
X182833333Y-53311961D01*
X182833333Y-53311961D02*
X182785714Y-53216723D01*
X182785714Y-53216723D02*
X182738095Y-53026247D01*
X182738095Y-53026247D02*
X182738095Y-52883390D01*
X182738095Y-52883390D02*
X182785714Y-52692914D01*
X182785714Y-52692914D02*
X182833333Y-52597676D01*
X182833333Y-52597676D02*
X182928571Y-52502438D01*
X182928571Y-52502438D02*
X183071428Y-52454819D01*
X183071428Y-52454819D02*
X183166666Y-52454819D01*
X183166666Y-52454819D02*
X183309523Y-52502438D01*
X183309523Y-52502438D02*
X183357142Y-52550057D01*
X183976190Y-52454819D02*
X184166666Y-52454819D01*
X184166666Y-52454819D02*
X184261904Y-52502438D01*
X184261904Y-52502438D02*
X184357142Y-52597676D01*
X184357142Y-52597676D02*
X184404761Y-52788152D01*
X184404761Y-52788152D02*
X184404761Y-53121485D01*
X184404761Y-53121485D02*
X184357142Y-53311961D01*
X184357142Y-53311961D02*
X184261904Y-53407200D01*
X184261904Y-53407200D02*
X184166666Y-53454819D01*
X184166666Y-53454819D02*
X183976190Y-53454819D01*
X183976190Y-53454819D02*
X183880952Y-53407200D01*
X183880952Y-53407200D02*
X183785714Y-53311961D01*
X183785714Y-53311961D02*
X183738095Y-53121485D01*
X183738095Y-53121485D02*
X183738095Y-52788152D01*
X183738095Y-52788152D02*
X183785714Y-52597676D01*
X183785714Y-52597676D02*
X183880952Y-52502438D01*
X183880952Y-52502438D02*
X183976190Y-52454819D01*
X184833333Y-53454819D02*
X184833333Y-52454819D01*
X184833333Y-52454819D02*
X185071428Y-52454819D01*
X185071428Y-52454819D02*
X185214285Y-52502438D01*
X185214285Y-52502438D02*
X185309523Y-52597676D01*
X185309523Y-52597676D02*
X185357142Y-52692914D01*
X185357142Y-52692914D02*
X185404761Y-52883390D01*
X185404761Y-52883390D02*
X185404761Y-53026247D01*
X185404761Y-53026247D02*
X185357142Y-53216723D01*
X185357142Y-53216723D02*
X185309523Y-53311961D01*
X185309523Y-53311961D02*
X185214285Y-53407200D01*
X185214285Y-53407200D02*
X185071428Y-53454819D01*
X185071428Y-53454819D02*
X184833333Y-53454819D01*
X185833333Y-52931009D02*
X186166666Y-52931009D01*
X186309523Y-53454819D02*
X185833333Y-53454819D01*
X185833333Y-53454819D02*
X185833333Y-52454819D01*
X185833333Y-52454819D02*
X186309523Y-52454819D01*
X187261904Y-53454819D02*
X186690476Y-53454819D01*
X186976190Y-53454819D02*
X186976190Y-52454819D01*
X186976190Y-52454819D02*
X186880952Y-52597676D01*
X186880952Y-52597676D02*
X186785714Y-52692914D01*
X186785714Y-52692914D02*
X186690476Y-52740533D01*
X184214285Y-60931009D02*
X184357142Y-60978628D01*
X184357142Y-60978628D02*
X184404761Y-61026247D01*
X184404761Y-61026247D02*
X184452380Y-61121485D01*
X184452380Y-61121485D02*
X184452380Y-61264342D01*
X184452380Y-61264342D02*
X184404761Y-61359580D01*
X184404761Y-61359580D02*
X184357142Y-61407200D01*
X184357142Y-61407200D02*
X184261904Y-61454819D01*
X184261904Y-61454819D02*
X183880952Y-61454819D01*
X183880952Y-61454819D02*
X183880952Y-60454819D01*
X183880952Y-60454819D02*
X184214285Y-60454819D01*
X184214285Y-60454819D02*
X184309523Y-60502438D01*
X184309523Y-60502438D02*
X184357142Y-60550057D01*
X184357142Y-60550057D02*
X184404761Y-60645295D01*
X184404761Y-60645295D02*
X184404761Y-60740533D01*
X184404761Y-60740533D02*
X184357142Y-60835771D01*
X184357142Y-60835771D02*
X184309523Y-60883390D01*
X184309523Y-60883390D02*
X184214285Y-60931009D01*
X184214285Y-60931009D02*
X183880952Y-60931009D01*
X184738095Y-60454819D02*
X185309523Y-60454819D01*
X185023809Y-61454819D02*
X185023809Y-60454819D01*
X186166666Y-61454819D02*
X185595238Y-61454819D01*
X185880952Y-61454819D02*
X185880952Y-60454819D01*
X185880952Y-60454819D02*
X185785714Y-60597676D01*
X185785714Y-60597676D02*
X185690476Y-60692914D01*
X185690476Y-60692914D02*
X185595238Y-60740533D01*
D10*
X2146150303Y-2147441056D02*
X2145816970Y-2146964865D01*
X2145578875Y-2147441056D02*
X2145578875Y-2146441056D01*
X2145578875Y-2146441056D02*
X2145959827Y-2146441056D01*
X2145959827Y-2146441056D02*
X2146055065Y-2146488675D01*
X2146055065Y-2146488675D02*
X2146102684Y-2146536294D01*
X2146102684Y-2146536294D02*
X2146150303Y-2146631532D01*
X2146150303Y-2146631532D02*
X2146150303Y-2146774389D01*
X2146150303Y-2146774389D02*
X2146102684Y-2146869627D01*
X2146102684Y-2146869627D02*
X2146055065Y-2146917246D01*
X2146055065Y-2146917246D02*
X2145959827Y-2146964865D01*
X2145959827Y-2146964865D02*
X2145578875Y-2146964865D01*
X2146578875Y-2146917246D02*
X2146912208Y-2146917246D01*
X2147055065Y-2147441056D02*
X2146578875Y-2147441056D01*
X2146578875Y-2147441056D02*
X2146578875Y-2146441056D01*
X2146578875Y-2146441056D02*
X2147055065Y-2146441056D01*
X2147483646Y-2146917246D02*
X2147483637Y-2146917246D01*
X2147483637Y-2147441056D02*
X2147483637Y-2146441056D01*
X2147483637Y-2146441056D02*
X2147483646Y-2146441056D01*
X-2146483658Y-2146441056D02*
X-2146483658Y-2146679151D01*
X-2146721753Y-2146583913D02*
X-2146483658Y-2146679151D01*
X-2146483658Y-2146679151D02*
X-2146245563Y-2146583913D01*
X-2146626515Y-2146869627D02*
X-2146483658Y-2146679151D01*
X-2146483658Y-2146679151D02*
X-2146340801Y-2146869627D01*
X-2145721753Y-2146441056D02*
X-2145721753Y-2146679151D01*
X-2145959848Y-2146583913D02*
X-2145721753Y-2146679151D01*
X-2145721753Y-2146679151D02*
X-2145483658Y-2146583913D01*
X-2145864610Y-2146869627D02*
X-2145721753Y-2146679151D01*
X-2145721753Y-2146679151D02*
X-2145578896Y-2146869627D01*
D12*
X183170000Y-79470000D02*
X184500000Y-79470000D01*
X183170000Y-80800000D02*
X183170000Y-79470000D01*
X183170000Y-82070000D02*
X183170000Y-94830000D01*
X183170000Y-82070000D02*
X185830000Y-82070000D01*
X183170000Y-94830000D02*
X185830000Y-94830000D01*
X185830000Y-82070000D02*
X185830000Y-94830000D01*
X164450000Y-52000000D02*
X164210000Y-51664000D01*
X164690000Y-51664000D01*
X164450000Y-52000000D01*
G36*
X164450000Y-52000000D02*
G01*
X164210000Y-51664000D01*
X164690000Y-51664000D01*
X164450000Y-52000000D01*
G37*
X181120000Y-68620000D02*
X179000000Y-68620000D01*
X181120000Y-68000000D02*
X181120000Y-68620000D01*
X167000000Y-68620000D02*
X164880000Y-68620000D01*
X164880000Y-68620000D02*
X164880000Y-68000000D01*
X167600000Y-71445000D02*
X167600000Y-74105000D01*
X175280000Y-71445000D02*
X167600000Y-71445000D01*
X175280000Y-71445000D02*
X175280000Y-74105000D01*
X175280000Y-74105000D02*
X167600000Y-74105000D01*
X177880000Y-72775000D02*
X177880000Y-74105000D01*
X177880000Y-74105000D02*
X176550000Y-74105000D01*
X159670000Y-54395000D02*
X161000000Y-54395000D01*
X159670000Y-55725000D02*
X159670000Y-54395000D01*
X159670000Y-56995000D02*
X159670000Y-59595000D01*
X159670000Y-56995000D02*
X162330000Y-56995000D01*
X159670000Y-59595000D02*
X162330000Y-59595000D01*
X162330000Y-56995000D02*
X162330000Y-59595000D01*
X183670000Y-54130000D02*
X185000000Y-54130000D01*
X183670000Y-55460000D02*
X183670000Y-54130000D01*
X183670000Y-56730000D02*
X183670000Y-59330000D01*
X183670000Y-56730000D02*
X186330000Y-56730000D01*
X183670000Y-59330000D02*
X186330000Y-59330000D01*
X186330000Y-56730000D02*
X186330000Y-59330000D01*
X183670000Y-62090000D02*
X185000000Y-62090000D01*
X183670000Y-63420000D02*
X183670000Y-62090000D01*
X183670000Y-64690000D02*
X183670000Y-69830000D01*
X183670000Y-64690000D02*
X186330000Y-64690000D01*
X183670000Y-69830000D02*
X186330000Y-69830000D01*
X186330000Y-64690000D02*
X186330000Y-69830000D01*
D10*
X-2139483659Y2133483659D02*
X2138483637Y2133483659D01*
X-2139483659Y-2134483637D02*
X-2139483659Y2133483659D01*
X2138483637Y2133483659D02*
X2138483637Y-2134483637D01*
X2138483637Y-2134483637D02*
X-2139483659Y-2134483637D01*
%LPC*%
D13*
X184500000Y-80800000D03*
D14*
X184500000Y-83340000D03*
X184500000Y-85880000D03*
X184500000Y-88420000D03*
X184500000Y-90960000D03*
X184500000Y-93500000D03*
D15*
X180600000Y-53000000D03*
X180600000Y-55000000D03*
X180600000Y-57000000D03*
X180600000Y-59000000D03*
X180600000Y-61000000D03*
X180600000Y-63000000D03*
X180600000Y-65000000D03*
X180600000Y-67000000D03*
D16*
X178000000Y-68500000D03*
X176000000Y-68500000D03*
X174000000Y-68500000D03*
X172000000Y-68500000D03*
X170000000Y-68500000D03*
X168000000Y-68500000D03*
D15*
X165400000Y-67000000D03*
X165400000Y-65000000D03*
X165400000Y-63000000D03*
X165400000Y-61000000D03*
X165400000Y-59000000D03*
X165400000Y-57000000D03*
X165400000Y-55000000D03*
X165400000Y-53000000D03*
D13*
X176550000Y-72775000D03*
D14*
X174010000Y-72775000D03*
X171470000Y-72775000D03*
X168930000Y-72775000D03*
D13*
X161000000Y-55725000D03*
D14*
X161000000Y-58265000D03*
D13*
X185000000Y-55460000D03*
D14*
X185000000Y-58000000D03*
D13*
X185000000Y-63420000D03*
D14*
X185000000Y-65960000D03*
X185000000Y-68500000D03*
D17*
X2139443637Y-2136483637D03*
X2139483637Y2134983659D03*
X-2143023659Y-2136483637D03*
X-2140483659Y2134983659D03*
X2141983637Y-2136483637D03*
X-2140483659Y-2136483637D03*
D13*
X161600000Y-87975000D03*
D14*
X161600000Y-90515000D03*
X161600000Y-93055000D03*
%LPD*%
M02*
