G04 #@! TF.GenerationSoftware,KiCad,Pcbnew,8.0.5*
G04 #@! TF.CreationDate,2025-06-30T10:57:32+07:00*
G04 #@! TF.ProjectId,trackingv2,74726163-6b69-46e6-9776-322e6b696361,rev?*
G04 #@! TF.SameCoordinates,Original*
G04 #@! TF.FileFunction,Copper,L2,Bot*
G04 #@! TF.FilePolarity,Positive*
%FSLAX46Y46*%
G04 Gerber Fmt 4.6, Leading zero omitted, Abs format (unit mm)*
G04 Created by KiCad (PCBNEW 8.0.5) date 2025-06-30 10:57:32*
%MOMM*%
%LPD*%
G01*
G04 APERTURE LIST*
G04 Aperture macros list*
%AMRoundRect*
0 Rectangle with rounded corners*
0 $1 Rounding radius*
0 $2 $3 $4 $5 $6 $7 $8 $9 X,Y pos of 4 corners*
0 Add a 4 corners polygon primitive as box body*
4,1,4,$2,$3,$4,$5,$6,$7,$8,$9,$2,$3,0*
0 Add four circle primitives for the rounded corners*
1,1,$1+$1,$2,$3*
1,1,$1+$1,$4,$5*
1,1,$1+$1,$6,$7*
1,1,$1+$1,$8,$9*
0 Add four rect primitives between the rounded corners*
20,1,$1+$1,$2,$3,$4,$5,0*
20,1,$1+$1,$4,$5,$6,$7,0*
20,1,$1+$1,$6,$7,$8,$9,0*
20,1,$1+$1,$8,$9,$2,$3,0*%
G04 Aperture macros list end*
G04 #@! TA.AperFunction,ComponentPad*
%ADD10R,1.700000X1.700000*%
G04 #@! TD*
G04 #@! TA.AperFunction,ComponentPad*
%ADD11O,1.700000X1.700000*%
G04 #@! TD*
G04 #@! TA.AperFunction,ComponentPad*
%ADD12R,1.524000X1.524000*%
G04 #@! TD*
G04 #@! TA.AperFunction,SMDPad,CuDef*
%ADD13RoundRect,0.250001X-0.924999X0.499999X-0.924999X-0.499999X0.924999X-0.499999X0.924999X0.499999X0*%
G04 #@! TD*
G04 #@! TA.AperFunction,SMDPad,CuDef*
%ADD14RoundRect,0.250000X-0.337500X-0.475000X0.337500X-0.475000X0.337500X0.475000X-0.337500X0.475000X0*%
G04 #@! TD*
G04 #@! TA.AperFunction,SMDPad,CuDef*
%ADD15RoundRect,0.250000X-0.450000X0.350000X-0.450000X-0.350000X0.450000X-0.350000X0.450000X0.350000X0*%
G04 #@! TD*
G04 #@! TA.AperFunction,SMDPad,CuDef*
%ADD16RoundRect,0.375000X0.375000X-0.625000X0.375000X0.625000X-0.375000X0.625000X-0.375000X-0.625000X0*%
G04 #@! TD*
G04 #@! TA.AperFunction,SMDPad,CuDef*
%ADD17RoundRect,0.500000X1.400000X-0.500000X1.400000X0.500000X-1.400000X0.500000X-1.400000X-0.500000X0*%
G04 #@! TD*
G04 #@! TA.AperFunction,ViaPad*
%ADD18C,0.600000*%
G04 #@! TD*
G04 #@! TA.AperFunction,Conductor*
%ADD19C,0.300000*%
G04 #@! TD*
G04 APERTURE END LIST*
D10*
X184500000Y-80800000D03*
D11*
X184500000Y-83340000D03*
X184500000Y-85880000D03*
X184500000Y-88420000D03*
X184500000Y-90960000D03*
X184500000Y-93500000D03*
D10*
X176550000Y-72775000D03*
D11*
X174010000Y-72775000D03*
X171470000Y-72775000D03*
X168930000Y-72775000D03*
D10*
X161000000Y-55725000D03*
D11*
X161000000Y-58265000D03*
D10*
X185000000Y-55460000D03*
D11*
X185000000Y-58000000D03*
D10*
X185000000Y-63420000D03*
D11*
X185000000Y-65960000D03*
X185000000Y-68500000D03*
D12*
X2139443637Y-2136483637D03*
X2139483637Y2134983659D03*
X-2143023659Y-2136483637D03*
X-2140483659Y2134983659D03*
X2141983637Y-2136483637D03*
X-2140483659Y-2136483637D03*
D13*
X161000000Y-62875000D03*
X161000000Y-66125000D03*
D14*
X168462500Y-66750000D03*
X170537500Y-66750000D03*
D15*
X177750000Y-60500000D03*
X177750000Y-62500000D03*
D10*
X161600000Y-87975000D03*
D11*
X161600000Y-90515000D03*
X161600000Y-93055000D03*
D13*
X177000000Y-53625000D03*
X177000000Y-56875000D03*
D15*
X177750000Y-64750000D03*
X177750000Y-66750000D03*
X165000000Y-55000000D03*
X165000000Y-57000000D03*
D14*
X168462500Y-64000000D03*
X170537500Y-64000000D03*
D16*
X173300000Y-60050000D03*
X171000000Y-60050000D03*
D17*
X171000000Y-53750000D03*
D16*
X168700000Y-60050000D03*
D18*
X165400000Y-57000000D03*
X180600000Y-65000000D03*
X165400000Y-67000000D03*
X180600000Y-67000000D03*
X170537500Y-66750000D03*
X180600000Y-63000000D03*
X180600000Y-61000000D03*
D19*
X170837500Y-64000000D02*
X170537500Y-64000000D01*
X173300000Y-61537500D02*
X170837500Y-64000000D01*
X173300000Y-60050000D02*
X173300000Y-61537500D01*
X177750000Y-64750000D02*
X178000000Y-65000000D01*
X178000000Y-65000000D02*
X180600000Y-65000000D01*
X171000000Y-60050000D02*
X171000000Y-61500000D01*
X170700000Y-60300000D02*
X170950000Y-60050000D01*
X165000000Y-55050000D02*
X169700000Y-55050000D01*
X165650000Y-66750000D02*
X165400000Y-67000000D01*
X177000000Y-53675000D02*
X171075000Y-53675000D01*
X171000000Y-61500000D02*
X168500000Y-64000000D01*
X171000000Y-53750000D02*
X171000000Y-60050000D01*
X171075000Y-53675000D02*
X171000000Y-53750000D01*
X168462500Y-66750000D02*
X165650000Y-66750000D01*
X168500000Y-64000000D02*
X168462500Y-64000000D01*
X169700000Y-55050000D02*
X171000000Y-53750000D01*
X168462500Y-64000000D02*
X168462500Y-63537500D01*
X168462500Y-64000000D02*
X168462500Y-66750000D01*
X161000000Y-66125000D02*
X163375000Y-68500000D01*
X173875000Y-60050000D02*
X173300000Y-60050000D01*
X177750000Y-66750000D02*
X178000000Y-67000000D01*
X173000000Y-66750000D02*
X177750000Y-66750000D01*
X159250000Y-64375000D02*
X161000000Y-66125000D01*
X166500000Y-68500000D02*
X168787500Y-68500000D01*
X168787500Y-68500000D02*
X170537500Y-66750000D01*
X161000000Y-55725000D02*
X159250000Y-57475000D01*
X170537500Y-66750000D02*
X172500000Y-66750000D01*
X163375000Y-68500000D02*
X166500000Y-68500000D01*
X178000000Y-67000000D02*
X180600000Y-67000000D01*
X170537500Y-64000000D02*
X170537500Y-66750000D01*
X159250000Y-57475000D02*
X159250000Y-64375000D01*
X172500000Y-66750000D02*
X173000000Y-66750000D01*
X177000000Y-56925000D02*
X173875000Y-60050000D01*
X178100000Y-60500000D02*
X180600000Y-63000000D01*
X177750000Y-60500000D02*
X178100000Y-60500000D01*
X185000000Y-65960000D02*
X185000000Y-65750000D01*
X185000000Y-65750000D02*
X180600000Y-61350000D01*
X180600000Y-61350000D02*
X180600000Y-61000000D01*
X177750000Y-62500000D02*
X179019239Y-62500000D01*
X185000000Y-68480761D02*
X185000000Y-68500000D01*
X179019239Y-62500000D02*
X185000000Y-68480761D01*
X161000000Y-58265000D02*
X161000000Y-62875000D01*
X168700000Y-59750000D02*
X162485000Y-59750000D01*
X162485000Y-59750000D02*
X161000000Y-58265000D01*
M02*
